{
    "asset": {
        "generator": "FBX2glTF v0.9.7",
        "version": "2.0"
    },
    "scene": 0,
    "buffers": [
        {
            "byteLength": 719268,
            "uri": "buffer.bin"
        }
    ],
    "bufferViews": [
        {
            "buffer": 0,
            "byteLength": 5664,
            "byteOffset": 0,
            "target": 34963
        },
        {
            "buffer": 0,
            "byteLength": 18708,
            "byteOffset": 5664,
            "target": 34962
        },
        {
            "buffer": 0,
            "byteLength": 18708,
            "byteOffset": 24372,
            "target": 34962
        },
        {
            "buffer": 0,
            "byteLength": 12472,
            "byteOffset": 43080,
            "target": 34962
        },
        {
            "buffer": 0,
            "byteLength": 61026,
            "byteOffset": 55552,
            "target": 34963
        },
        {
            "buffer": 0,
            "byteLength": 226008,
            "byteOffset": 116580,
            "target": 34962
        },
        {
            "buffer": 0,
            "byteLength": 226008,
            "byteOffset": 342588,
            "target": 34962
        },
        {
            "buffer": 0,
            "byteLength": 150672,
            "byteOffset": 568596,
            "target": 34962
        }
    ],
    "scenes": [
        {
            "name": "Root Scene",
            "nodes": [
                0
            ]
        }
    ],
    "accessors": [
        {
            "componentType": 5123,
            "type": "SCALAR",
            "count": 2832,
            "bufferView": 0,
            "byteOffset": 0
        },
        {
            "componentType": 5126,
            "type": "VEC3",
            "count": 1559,
            "bufferView": 1,
            "byteOffset": 0,
            "min": [
                -25.5647888183594,
                -0.0623668655753136,
                -3.48065519332886
            ],
            "max": [
                13.6161470413208,
                23.876012802124,
                1.58412623405457
            ]
        },
        {
            "componentType": 5126,
            "type": "VEC3",
            "count": 1559,
            "bufferView": 2,
            "byteOffset": 0
        },
        {
            "componentType": 5126,
            "type": "VEC2",
            "count": 1559,
            "bufferView": 3,
            "byteOffset": 0
        },
        {
            "componentType": 5123,
            "type": "SCALAR",
            "count": 30513,
            "bufferView": 4,
            "byteOffset": 0
        },
        {
            "componentType": 5126,
            "type": "VEC3",
            "count": 18834,
            "bufferView": 5,
            "byteOffset": 0,
            "min": [
                -12.2037086486816,
                -47.9987297058105,
                -5.63930749893188
            ],
            "max": [
                33.9741744995117,
                6.44218730926514,
                3.59734344482422
            ]
        },
        {
            "componentType": 5126,
            "type": "VEC3",
            "count": 18834,
            "bufferView": 6,
            "byteOffset": 0
        },
        {
            "componentType": 5126,
            "type": "VEC2",
            "count": 18834,
            "bufferView": 7,
            "byteOffset": 0
        }
    ],
    "samplers": [
        {}
    ],
    "materials": [
        {
            "name": "3",
            "alphaMode": "OPAQUE",
            "extras": {
                "fromFBX": {
                    "shadingModel": "Phong",
                    "isTruePBR": false
                }
            },
            "pbrMetallicRoughness": {
                "baseColorFactor": [
                    0.587999999523163,
                    0.587999999523163,
                    0.587999999523163,
                    1.0
                ],
                "metallicFactor": 0.400000005960464,
                "roughnessFactor": 0.70710676908493
            }
        },
        {
            "name": "youanzong",
            "alphaMode": "OPAQUE",
            "extras": {
                "fromFBX": {
                    "shadingModel": "Phong",
                    "isTruePBR": false
                }
            },
            "pbrMetallicRoughness": {
                "baseColorFactor": [
                    0.587999999523163,
                    0.587999999523163,
                    0.587999999523163,
                    1.0
                ],
                "metallicFactor": 0.400000005960464,
                "roughnessFactor": 0.70710676908493
            }
        }
    ],
    "meshes": [
        {
            "name": "anS02",
            "primitives": [
                {
                    "material": 0,
                    "mode": 4,
                    "attributes": {
                        "NORMAL": 2,
                        "POSITION": 1,
                        "TEXCOORD_0": 3
                    },
                    "indices": 0
                }
            ]
        },
        {
            "name": "anS01",
            "primitives": [
                {
                    "material": 1,
                    "mode": 4,
                    "attributes": {
                        "NORMAL": 6,
                        "POSITION": 5,
                        "TEXCOORD_0": 7
                    },
                    "indices": 4
                }
            ]
        }
    ],
    "nodes": [
        {
            "name": "RootNode",
            "translation": [
                0.0,
                0.0,
                0.0
            ],
            "rotation": [
                0.0,
                0.0,
                0.0,
                1.0
            ],
            "scale": [
                1.0,
                1.0,
                1.0
            ],
            "children": [
                1,
                2
            ]
        },
        {
            "name": "anS02",
            "translation": [
                12.4564304351807,
                1.60487306118011,
                9.37270259857178
            ],
            "rotation": [
                -0.70710676908493,
                -0.0,
                0.0,
                0.70710676908493
            ],
            "scale": [
                1.0,
                1.0,
                1.0
            ],
            "mesh": 0
        },
        {
            "name": "anS01",
            "translation": [
                -11.7054462432861,
                1.7716897726059,
                -0.860484957695007
            ],
            "rotation": [
                -0.5,
                0.5,
                0.5,
                0.5
            ],
            "scale": [
                1.0,
                1.0,
                1.0
            ],
            "mesh": 1
        }
    ]
}