{
  "accessors": [
    {
      "bufferView": 0,
      "componentType": 5126,
      "count": 38,
      "max": [
        0.6751065850257874,
        0.6648502349853516,
        0.7306054830551147
      ],
      "min": [
        -0.6751065850257874,
        -0.6648502349853516,
        0.0
      ],
      "name": "guangzhu/POSITION",
      "type": "VEC3"
    },
    {
      "bufferView": 0,
      "byteOffset": 12,
      "componentType": 5126,
      "count": 38,
      "name": "guangzhu/NORMAL",
      "type": "VEC3"
    },
    {
      "bufferView": 0,
      "byteOffset": 24,
      "componentType": 5126,
      "count": 38,
      "name": "guangzhu/TEXCOORD_0",
      "type": "VEC2"
    },
    {
      "bufferView": 1,
      "componentType": 5125,
      "count": 108,
      "name": "guangzhu/INDICES",
      "type": "SCALAR"
    }
  ],
  "asset": {
    "copyright": "Copyright (c) 2018-2020 Chukong Technologies Inc.",
    "generator": "FBX-glTF-conv",
    "version": "2.0"
  },
  "bufferViews": [
    {
      "buffer": 0,
      "byteLength": 1216,
      "byteStride": 32,
      "name": "guangzhu",
      "target": 34962
    },
    {
      "buffer": 0,
      "byteLength": 432,
      "byteOffset": 1216
    }
  ],
  "buffers": [
    {
      "byteLength": 1648,
      "uri": "out.bin"
    }
  ],
  "meshes": [
    {
      "name": "guangzhu",
      "primitives": [
        {
          "attributes": {
            "NORMAL": 1,
            "POSITION": 0,
            "TEXCOORD_0": 2
          },
          "indices": 3
        }
      ]
    }
  ],
  "nodes": [
    {
      "mesh": 0,
      "name": "guangzhu",
      "rotation": [
        -0.7071067690849304,
        -0.0,
        0.0,
        0.7071067690849304
      ]
    }
  ],
  "scenes": [
    {
      "nodes": [
        0
      ]
    }
  ]
}