{
  "accessors": [
    {
      "bufferView": 0,
      "componentType": 5126,
      "count": 102,
      "max": [
        0.3055439591407776,
        0.3201996386051178,
        1.0752644538879395
      ],
      "min": [
        -0.3243551552295685,
        -0.3412271738052368,
        -0.026237865909934044
      ],
      "name": "wind_02/POSITION",
      "type": "VEC3"
    },
    {
      "bufferView": 0,
      "byteOffset": 12,
      "componentType": 5126,
      "count": 102,
      "name": "wind_02/NORMAL",
      "type": "VEC3"
    },
    {
      "bufferView": 0,
      "byteOffset": 24,
      "componentType": 5126,
      "count": 102,
      "name": "wind_02/TEXCOORD_0",
      "type": "VEC2"
    },
    {
      "bufferView": 1,
      "componentType": 5125,
      "count": 300,
      "name": "wind_02/INDICES",
      "type": "SCALAR"
    },
    {
      "bufferView": 2,
      "componentType": 5126,
      "count": 102,
      "max": [
        0.3407617509365082,
        0.4737780690193176,
        0.8656368851661682
      ],
      "min": [
        -0.43742766976356506,
        -0.390986829996109,
        -0.08805445581674576
      ],
      "name": "wind_01/POSITION",
      "type": "VEC3"
    },
    {
      "bufferView": 2,
      "byteOffset": 12,
      "componentType": 5126,
      "count": 102,
      "name": "wind_01/NORMAL",
      "type": "VEC3"
    },
    {
      "bufferView": 2,
      "byteOffset": 24,
      "componentType": 5126,
      "count": 102,
      "name": "wind_01/TEXCOORD_0",
      "type": "VEC2"
    },
    {
      "bufferView": 3,
      "componentType": 5125,
      "count": 288,
      "name": "wind_01/INDICES",
      "type": "SCALAR"
    }
  ],
  "asset": {
    "copyright": "Copyright (c) 2018-2020 Chukong Technologies Inc.",
    "generator": "FBX-glTF-conv",
    "version": "2.0"
  },
  "bufferViews": [
    {
      "buffer": 0,
      "byteLength": 3264,
      "byteStride": 32,
      "name": "wind_02",
      "target": 34962
    },
    {
      "buffer": 0,
      "byteLength": 1200,
      "byteOffset": 3264
    },
    {
      "buffer": 0,
      "byteLength": 3264,
      "byteOffset": 4464,
      "byteStride": 32,
      "name": "wind_01",
      "target": 34962
    },
    {
      "buffer": 0,
      "byteLength": 1152,
      "byteOffset": 7728
    }
  ],
  "buffers": [
    {
      "byteLength": 8880,
      "uri": "out.bin"
    }
  ],
  "meshes": [
    {
      "name": "wind_02",
      "primitives": [
        {
          "attributes": {
            "NORMAL": 1,
            "POSITION": 0,
            "TEXCOORD_0": 2
          },
          "indices": 3
        }
      ]
    },
    {
      "name": "wind_01",
      "primitives": [
        {
          "attributes": {
            "NORMAL": 5,
            "POSITION": 4,
            "TEXCOORD_0": 6
          },
          "indices": 7
        }
      ]
    }
  ],
  "nodes": [
    {
      "mesh": 0,
      "name": "wind_02",
      "rotation": [
        -0.7071067690849304,
        -0.0,
        0.0,
        0.7071067690849304
      ]
    },
    {
      "mesh": 1,
      "name": "wind_01",
      "rotation": [
        -0.7071067690849304,
        -0.0,
        0.0,
        0.7071067690849304
      ]
    }
  ],
  "scenes": [
    {
      "nodes": [
        0,
        1
      ]
    }
  ]
}