{
    "asset": {
        "generator": "FBX2glTF v0.9.7",
        "version": "2.0"
    },
    "scene": 0,
    "buffers": [
        {
            "byteLength": 453676,
            "uri": "buffer.bin"
        }
    ],
    "bufferViews": [
        {
            "buffer": 0,
            "byteLength": 4332,
            "byteOffset": 0,
            "target": 34963
        },
        {
            "buffer": 0,
            "byteLength": 14292,
            "byteOffset": 4332,
            "target": 34962
        },
        {
            "buffer": 0,
            "byteLength": 14292,
            "byteOffset": 18624,
            "target": 34962
        },
        {
            "buffer": 0,
            "byteLength": 9528,
            "byteOffset": 32916,
            "target": 34962
        },
        {
            "buffer": 0,
            "byteLength": 37968,
            "byteOffset": 42444,
            "target": 34963
        },
        {
            "buffer": 0,
            "byteLength": 138720,
            "byteOffset": 80412,
            "target": 34962
        },
        {
            "buffer": 0,
            "byteLength": 138720,
            "byteOffset": 219132,
            "target": 34962
        },
        {
            "buffer": 0,
            "byteLength": 92480,
            "byteOffset": 357852,
            "target": 34962
        },
        {
            "buffer": 0,
            "byteLength": 336,
            "byteOffset": 450332,
            "target": 34963
        },
        {
            "buffer": 0,
            "byteLength": 1128,
            "byteOffset": 450668,
            "target": 34962
        },
        {
            "buffer": 0,
            "byteLength": 1128,
            "byteOffset": 451796,
            "target": 34962
        },
        {
            "buffer": 0,
            "byteLength": 752,
            "byteOffset": 452924,
            "target": 34962
        }
    ],
    "scenes": [
        {
            "name": "Root Scene",
            "nodes": [
                0
            ]
        }
    ],
    "accessors": [
        {
            "componentType": 5123,
            "type": "SCALAR",
            "count": 2166,
            "bufferView": 0,
            "byteOffset": 0
        },
        {
            "componentType": 5126,
            "type": "VEC3",
            "count": 1191,
            "bufferView": 1,
            "byteOffset": 0,
            "min": [
                -25.5647888183594,
                -0.0623668655753136,
                -3.48065519332886
            ],
            "max": [
                3.43342590332031,
                22.1582813262939,
                1.58412623405457
            ]
        },
        {
            "componentType": 5126,
            "type": "VEC3",
            "count": 1191,
            "bufferView": 2,
            "byteOffset": 0
        },
        {
            "componentType": 5126,
            "type": "VEC2",
            "count": 1191,
            "bufferView": 3,
            "byteOffset": 0
        },
        {
            "componentType": 5123,
            "type": "SCALAR",
            "count": 18984,
            "bufferView": 4,
            "byteOffset": 0
        },
        {
            "componentType": 5126,
            "type": "VEC3",
            "count": 11560,
            "bufferView": 5,
            "byteOffset": 0,
            "min": [
                -12.2037086486816,
                -29.7546443939209,
                -5.63930749893188
            ],
            "max": [
                13.1333932876587,
                4.9066801071167,
                3.59734344482422
            ]
        },
        {
            "componentType": 5126,
            "type": "VEC3",
            "count": 11560,
            "bufferView": 6,
            "byteOffset": 0
        },
        {
            "componentType": 5126,
            "type": "VEC2",
            "count": 11560,
            "bufferView": 7,
            "byteOffset": 0
        },
        {
            "componentType": 5123,
            "type": "SCALAR",
            "count": 168,
            "bufferView": 8,
            "byteOffset": 0
        },
        {
            "componentType": 5126,
            "type": "VEC3",
            "count": 94,
            "bufferView": 9,
            "byteOffset": 0,
            "min": [
                -0.413906246423721,
                -0.446506351232529,
                -2.04886341094971
            ],
            "max": [
                0.413906246423721,
                0.446501463651657,
                2.04886341094971
            ]
        },
        {
            "componentType": 5126,
            "type": "VEC3",
            "count": 94,
            "bufferView": 10,
            "byteOffset": 0
        },
        {
            "componentType": 5126,
            "type": "VEC2",
            "count": 94,
            "bufferView": 11,
            "byteOffset": 0
        }
    ],
    "images": [
        {
            "name": "3",
            "uri": "data:image/png;base64,"
        },
        {
            "name": "youanzong",
            "uri": "data:image/png;base64,"
        }
    ],
    "samplers": [
        {}
    ],
    "textures": [
        {
            "name": "3",
            "sampler": 0,
            "source": 0
        },
        {
            "name": "youanzong",
            "sampler": 0,
            "source": 1
        }
    ],
    "materials": [
        {
            "name": "3",
            "alphaMode": "OPAQUE",
            "extras": {
                "fromFBX": {
                    "shadingModel": "Phong",
                    "isTruePBR": false
                }
            },
            "pbrMetallicRoughness": {
                "baseColorTexture": {
                    "index": 0,
                    "texCoord": 0
                },
                "baseColorFactor": [
                    1.0,
                    1.0,
                    1.0,
                    1.0
                ],
                "metallicFactor": 0.400000005960464,
                "roughnessFactor": 0.70710676908493
            }
        },
        {
            "name": "youanzong",
            "alphaMode": "OPAQUE",
            "extras": {
                "fromFBX": {
                    "shadingModel": "Phong",
                    "isTruePBR": false
                }
            },
            "pbrMetallicRoughness": {
                "baseColorTexture": {
                    "index": 1,
                    "texCoord": 0
                },
                "baseColorFactor": [
                    1.0,
                    1.0,
                    1.0,
                    1.0
                ],
                "metallicFactor": 0.400000005960464,
                "roughnessFactor": 0.70710676908493
            }
        }
    ],
    "meshes": [
        {
            "name": "an02",
            "primitives": [
                {
                    "material": 0,
                    "mode": 4,
                    "attributes": {
                        "NORMAL": 2,
                        "POSITION": 1,
                        "TEXCOORD_0": 3
                    },
                    "indices": 0
                }
            ]
        },
        {
            "name": "an01",
            "primitives": [
                {
                    "material": 1,
                    "mode": 4,
                    "attributes": {
                        "NORMAL": 6,
                        "POSITION": 5,
                        "TEXCOORD_0": 7
                    },
                    "indices": 4
                }
            ]
        },
        {
            "name": "stone01",
            "primitives": [
                {
                    "material": 1,
                    "mode": 4,
                    "attributes": {
                        "NORMAL": 10,
                        "POSITION": 9,
                        "TEXCOORD_0": 11
                    },
                    "indices": 8
                }
            ]
        }
    ],
    "nodes": [
        {
            "name": "RootNode",
            "translation": [
                0.0,
                0.0,
                0.0
            ],
            "rotation": [
                0.0,
                0.0,
                0.0,
                1.0
            ],
            "scale": [
                1.0,
                1.0,
                1.0
            ],
            "children": [
                1,
                2,
                3
            ]
        },
        {
            "name": "an02",
            "translation": [
                12.4564304351807,
                1.60487306118011,
                9.37270259857178
            ],
            "rotation": [
                -0.70710676908493,
                -0.0,
                0.0,
                0.70710676908493
            ],
            "scale": [
                1.0,
                1.0,
                1.0
            ],
            "mesh": 0
        },
        {
            "name": "an01",
            "translation": [
                -11.7054462432861,
                1.7716897726059,
                -0.860484957695007
            ],
            "rotation": [
                -0.5,
                0.5,
                0.5,
                0.5
            ],
            "scale": [
                1.0,
                1.0,
                1.0
            ],
            "mesh": 1
        },
        {
            "name": "stone01",
            "translation": [
                17.262601852417,
                0.422290474176407,
                7.17886543273926
            ],
            "rotation": [
                -0.5,
                0.5,
                0.5,
                0.5
            ],
            "scale": [
                1.0,
                1.0,
                1.0
            ],
            "mesh": 2
        }
    ]
}