{
    "asset": {
        "generator": "FBX2glTF v0.9.7",
        "version": "2.0"
    },
    "scene": 0,
    "buffers": [
        {
            "byteLength": 13552,
            "uri": "buffer.bin"
        }
    ],
    "bufferViews": [
        {
            "buffer": 0,
            "byteLength": 1200,
            "byteOffset": 0,
            "target": 34963
        },
        {
            "buffer": 0,
            "byteLength": 4632,
            "byteOffset": 1200,
            "target": 34962
        },
        {
            "buffer": 0,
            "byteLength": 4632,
            "byteOffset": 5832,
            "target": 34962
        },
        {
            "buffer": 0,
            "byteLength": 3088,
            "byteOffset": 10464,
            "target": 34962
        }
    ],
    "scenes": [
        {
            "name": "Root Scene",
            "nodes": [
                0
            ]
        }
    ],
    "accessors": [
        {
            "componentType": 5123,
            "type": "SCALAR",
            "count": 600,
            "bufferView": 0,
            "byteOffset": 0
        },
        {
            "componentType": 5126,
            "type": "VEC3",
            "count": 386,
            "bufferView": 1,
            "byteOffset": 0,
            "min": [
                -1.21616208553314,
                -1.99308228492737,
                0.000561523425858468
            ],
            "max": [
                1.21616208553314,
                1.99308347702026,
                2.53566741943359
            ]
        },
        {
            "componentType": 5126,
            "type": "VEC3",
            "count": 386,
            "bufferView": 2,
            "byteOffset": 0
        },
        {
            "componentType": 5126,
            "type": "VEC2",
            "count": 386,
            "bufferView": 3,
            "byteOffset": 0
        }
    ],
    "images": [
        {
            "name": "youanzong",
            "uri": "data:image/png;base64,"
        }
    ],
    "samplers": [
        {}
    ],
    "textures": [
        {
            "name": "youanzong",
            "sampler": 0,
            "source": 0
        }
    ],
    "materials": [
        {
            "name": "youanzong",
            "alphaMode": "OPAQUE",
            "extras": {
                "fromFBX": {
                    "shadingModel": "Phong",
                    "isTruePBR": false
                }
            },
            "pbrMetallicRoughness": {
                "baseColorTexture": {
                    "index": 0,
                    "texCoord": 0
                },
                "baseColorFactor": [
                    1.0,
                    1.0,
                    1.0,
                    1.0
                ],
                "metallicFactor": 0.400000005960464,
                "roughnessFactor": 0.70710676908493
            }
        }
    ],
    "meshes": [
        {
            "name": "anObstacle02",
            "primitives": [
                {
                    "material": 0,
                    "mode": 4,
                    "attributes": {
                        "NORMAL": 2,
                        "POSITION": 1,
                        "TEXCOORD_0": 3
                    },
                    "indices": 0
                }
            ]
        }
    ],
    "nodes": [
        {
            "name": "RootNode",
            "translation": [
                0.0,
                0.0,
                0.0
            ],
            "rotation": [
                0.0,
                0.0,
                0.0,
                1.0
            ],
            "scale": [
                1.0,
                1.0,
                1.0
            ],
            "children": [
                1
            ]
        },
        {
            "name": "anObstacle02",
            "translation": [
                0.0,
                0.0,
                6.32161656355379e-09
            ],
            "rotation": [
                -0.5,
                0.5,
                0.5,
                0.5
            ],
            "scale": [
                1.0,
                1.0,
                1.0
            ],
            "mesh": 0
        }
    ]
}