{
  "accessors": [
    {
      "bufferView": 0,
      "componentType": 5126,
      "count": 52,
      "max": [
        0.7620000243186951,
        0.7620000243186951,
        5.079999923706055
      ],
      "min": [
        -0.7620000243186951,
        -0.7620000243186951,
        0.0
      ],
      "name": "Cylinder001/POSITION",
      "type": "VEC3"
    },
    {
      "bufferView": 0,
      "byteOffset": 12,
      "componentType": 5126,
      "count": 52,
      "name": "Cylinder001/NORMAL",
      "type": "VEC3"
    },
    {
      "bufferView": 0,
      "byteOffset": 24,
      "componentType": 5126,
      "count": 52,
      "name": "Cylinder001/TEXCOORD_0",
      "type": "VEC2"
    },
    {
      "bufferView": 0,
      "byteOffset": 32,
      "componentType": 5126,
      "count": 52,
      "name": "Cylinder001/COLOR_0",
      "type": "VEC4"
    },
    {
      "bufferView": 1,
      "componentType": 5125,
      "count": 216,
      "name": "Cylinder001/INDICES",
      "type": "SCALAR"
    }
  ],
  "asset": {
    "copyright": "Copyright (c) 2018-2020 Chukong Technologies Inc.",
    "generator": "FBX-glTF-conv",
    "version": "2.0"
  },
  "bufferViews": [
    {
      "buffer": 0,
      "byteLength": 2496,
      "byteStride": 48,
      "name": "Cylinder001",
      "target": 34962
    },
    {
      "buffer": 0,
      "byteLength": 864,
      "byteOffset": 2496
    }
  ],
  "buffers": [
    {
      "byteLength": 3360,
      "uri": "out.bin"
    }
  ],
  "meshes": [
    {
      "name": "Cylinder001",
      "primitives": [
        {
          "attributes": {
            "COLOR_0": 3,
            "NORMAL": 1,
            "POSITION": 0,
            "TEXCOORD_0": 2
          },
          "indices": 4
        }
      ]
    }
  ],
  "nodes": [
    {
      "mesh": 0,
      "name": "Cylinder001",
      "rotation": [
        -0.651412844657898,
        -0.27506598830223083,
        -0.27506598830223083,
        0.651412844657898
      ],
      "translation": [
        0.010957721620798111,
        0.0,
        0.0
      ]
    }
  ],
  "scenes": [
    {
      "nodes": [
        0
      ]
    }
  ]
}